<?xml version="1.0" standalone="no"?>
<!DOCTYPE svg PUBLIC "-//W3C//DTD SVG 20010904//EN"
 "http://www.w3.org/TR/2001/REC-SVG-20010904/DTD/svg10.dtd">
<svg version="1.0" xmlns="http://www.w3.org/2000/svg"
 width="1200.000000pt" height="630.000000pt" viewBox="0 0 1200.000000 630.000000"
 preserveAspectRatio="xMidYMid meet">

<g transform="translate(0.000000,630.000000) scale(0.100000,-0.100000)"
fill="#000000" stroke="none">
<path d="M0 3150 l0 -3150 6000 0 6000 0 0 3150 0 3150 -6000 0 -6000 0 0
-3150z m6171 518 c34 -27 66 -43 88 -45 51 -6 52 -13 1 -11 -33 1 -52 9 -79
33 -20 17 -47 39 -61 48 -13 9 -19 17 -13 17 6 0 35 -19 64 -42z m-66 2 c3 -6
-1 -7 -9 -4 -18 7 -21 14 -7 14 6 0 13 -4 16 -10z m1975 -459 l0 -459 -99 -12
c-349 -45 -524 65 -509 320 6 97 41 175 101 224 66 53 111 68 217 72 l95 4 1
82 c0 46 1 116 2 156 l2 72 95 0 95 0 0 -459z m-1940 415 c-7 -7 -15 -5 -25 7
-8 9 -10 12 -3 7 20 -16 31 -11 17 8 -13 15 -12 16 4 3 12 -10 15 -17 7 -25z
m2303 -33 c3 -38 4 -81 3 -98 l-3 -30 -96 -3 -97 -3 0 101 0 100 94 0 93 0 6
-67z m-4553 -63 l0 -100 -95 0 -95 0 0 100 0 100 95 0 95 0 0 -100z m2096 68
c13 -13 24 -25 24 -28 0 -3 -25 -3 -55 -2 -47 3 -54 6 -44 18 6 8 18 14 25 14
8 0 14 5 14 10 0 16 10 12 36 -12z m357 -35 c-7 -2 -21 -2 -30 0 -10 3 -4 5
12 5 17 0 24 -2 18 -5z m-2883 -158 l0 -85 70 0 70 0 0 -75 0 -75 -70 0 -70 0
0 -124 c0 -122 9 -173 33 -188 7 -4 31 -8 55 -8 l42 0 0 -69 c0 -80 -1 -81
-115 -81 -79 0 -135 21 -175 64 -25 27 -25 31 -28 217 l-3 189 -50 0 -49 0 0
75 0 75 50 0 50 0 0 85 0 85 95 0 95 0 0 -85z m2550 45 l-25 -8 25 -2 c20 -2
21 -3 6 -7 -11 -3 -14 -8 -9 -12 7 -4 6 -11 -3 -19 -8 -7 -14 -8 -14 -2 0 5
-6 10 -12 10 -7 0 -22 7 -33 16 -17 13 -18 16 -5 24 8 5 33 9 55 9 35 -1 37
-2 15 -9z m5166 -116 c109 -55 160 -159 152 -308 -7 -134 -58 -219 -163 -274
-44 -23 -62 -26 -151 -27 -92 0 -105 2 -159 30 -110 56 -161 159 -153 309 7
129 59 220 153 268 64 34 85 38 177 35 73 -3 96 -8 144 -33z m-2152 1 c69 -33
76 -62 76 -342 l0 -242 -47 -8 c-27 -4 -113 -8 -193 -8 -122 0 -151 3 -183 19
-56 28 -81 69 -85 143 -4 53 -1 69 22 107 33 56 100 91 206 107 41 6 81 13 88
15 17 5 15 59 -3 74 -22 18 -136 8 -210 -19 -32 -11 -61 -21 -62 -21 -2 0 -3
33 -3 74 l0 74 63 21 c93 30 95 30 197 27 68 -1 106 -7 134 -21z m688 -2 c31
-14 56 -35 75 -64 l28 -42 3 -244 3 -243 -94 0 -95 0 -4 211 c-3 208 -3 211
-27 230 -24 19 -91 25 -138 13 -23 -6 -23 -6 -23 -230 l0 -224 -95 0 -95 0 0
289 0 290 73 15 c113 24 116 24 232 22 88 -1 120 -6 157 -23z m887 9 l34 -7 0
-73 c0 -40 -3 -75 -5 -78 -3 -2 -25 0 -51 5 l-45 8 -4 -266 c-5 -313 -10 -334
-93 -418 -74 -73 -155 -98 -298 -90 -56 2 -120 11 -142 19 l-40 15 -3 88 c-3
87 -3 88 20 80 87 -27 131 -35 191 -35 113 0 159 32 173 120 7 41 6 42 -17 34
-45 -17 -191 -10 -229 10 -95 50 -150 144 -150 260 0 174 98 289 283 332 65
15 307 13 376 -4z m-2159 -319 c-5 -311 -7 -331 -28 -385 -24 -60 -112 -153
-156 -164 -14 -3 -54 10 -111 36 l-89 41 44 25 c133 76 149 132 150 532 l0
242 98 0 97 0 -5 -327z m-6734 289 c56 -29 111 -95 129 -156 8 -27 15 -83 15
-123 l0 -73 -200 0 c-221 0 -223 -1 -175 -59 14 -16 42 -35 62 -42 50 -16 170
-6 228 20 26 12 49 21 51 21 2 0 4 -33 4 -74 l0 -75 -57 -21 c-80 -31 -220
-38 -295 -16 -79 23 -137 70 -173 141 -28 54 -30 67 -30 159 0 85 4 110 24
154 29 65 106 137 170 157 67 21 194 15 247 -13z m1352 13 l52 -16 0 -79 c0
-44 -2 -80 -4 -80 -2 0 -21 7 -42 16 -53 22 -163 16 -201 -12 -51 -38 -68 -71
-67 -130 0 -58 17 -91 68 -128 37 -28 156 -35 210 -12 21 9 40 16 42 16 2 0 4
-36 4 -79 l0 -79 -42 -17 c-24 -10 -80 -20 -125 -23 -223 -13 -359 108 -357
318 1 147 87 261 229 306 56 18 171 17 233 -1z m1364 -1 l58 -17 0 -78 0 -77
-55 19 c-100 35 -217 18 -189 -27 6 -10 51 -39 102 -64 50 -25 101 -55 113
-65 67 -60 63 -193 -8 -255 -65 -58 -223 -78 -345 -44 l-58 17 0 78 c0 44 3
79 8 79 4 -1 32 -9 62 -20 98 -34 214 -21 197 23 -3 9 -41 32 -83 52 -138 63
-184 113 -184 198 0 88 52 154 143 183 59 18 170 17 239 -2z m-3244 -7 c8 -6
12 -35 12 -86 l0 -78 -92 4 c-54 3 -104 0 -120 -6 l-28 -11 0 -215 0 -215 -95
0 -95 0 0 284 0 284 78 20 c42 12 88 23 102 26 38 7 223 2 238 -7z m1185 2
c23 -6 52 -19 65 -29 47 -38 52 -72 52 -329 l0 -240 -47 -8 c-27 -4 -113 -8
-193 -8 -122 0 -151 3 -183 19 -56 28 -81 69 -85 143 -4 53 -1 69 22 107 33
56 100 91 206 107 41 6 81 13 88 15 17 5 15 59 -3 74 -21 18 -135 7 -210 -19
-33 -12 -61 -21 -62 -21 -2 0 -3 33 -3 74 l0 74 63 21 c34 11 71 22 82 24 40
9 167 7 208 -4z m3529 -25 c14 -29 13 -30 -40 -38 -33 -5 -44 -3 -48 9 -10 25
-27 17 -20 -9 5 -19 1 -25 -16 -29 -24 -7 -41 3 -20 10 20 8 14 32 -7 26 -31
-8 -33 14 -3 35 51 37 137 34 154 -4z m-2002 -301 c-5 -311 -7 -331 -28 -385
-24 -61 -112 -153 -156 -164 -15 -3 -54 9 -112 36 l-89 41 45 25 c133 76 149
131 150 532 l0 242 98 0 97 0 -5 -327z m2056 305 c10 -12 13 -18 7 -14 -8 4
-13 1 -13 -8 0 -9 -4 -16 -10 -16 -5 0 -10 14 -10 30 0 36 1 36 26 8z m-364
-58 c10 0 18 -4 18 -9 0 -5 -15 -5 -35 1 -19 6 -32 15 -28 20 3 6 10 5 16 -1
6 -6 19 -11 29 -11z m115 -57 c-3 -10 -5 -2 -5 17 0 19 2 27 5 18 2 -10 2 -26
0 -35z m423 -133 c8 -5 12 -12 9 -15 -8 -8 -39 5 -39 16 0 11 11 11 30 -1z m6
-57 c21 -28 16 -35 -11 -16 -13 10 -25 21 -25 26 0 14 23 7 36 -10z m124 -12
c0 -5 -7 -14 -15 -21 -16 -14 -18 -10 -9 14 6 17 24 22 24 7z"/>
<path d="M7732 3180 c-41 -25 -62 -73 -62 -142 0 -99 53 -148 159 -148 l60 0
-2 153 -2 152 -60 3 c-46 2 -68 -2 -93 -18z"/>
<path d="M10948 3187 c-36 -29 -48 -65 -48 -144 0 -109 38 -163 115 -163 77 0
115 54 115 164 0 113 -37 166 -115 166 -27 0 -49 -8 -67 -23z"/>
<path d="M8863 2990 c-83 -17 -117 -53 -88 -96 14 -22 22 -24 85 -24 l70 0 0
65 c0 71 3 68 -67 55z"/>
<path d="M10220 3182 c-52 -26 -80 -74 -80 -139 0 -102 43 -153 129 -153 73 0
71 -5 71 161 l0 149 -42 0 c-24 0 -59 -8 -78 -18z"/>
<path d="M1498 3177 c-15 -12 -32 -34 -37 -49 l-11 -28 110 0 c105 0 110 1
110 21 0 11 -13 34 -29 50 -38 38 -102 41 -143 6z"/>
<path d="M2243 2960 c-83 -17 -117 -53 -88 -96 14 -22 22 -24 85 -24 l70 0 0
65 c0 71 3 68 -67 55z"/>
</g>
</svg>
