<?xml version="1.0" standalone="no"?>
<!DOCTYPE svg PUBLIC "-//W3C//DTD SVG 20010904//EN"
 "http://www.w3.org/TR/2001/REC-SVG-20010904/DTD/svg10.dtd">
<svg version="1.0" xmlns="http://www.w3.org/2000/svg"
 width="300.000000pt" height="168.000000pt" viewBox="0 0 300.000000 168.000000"
 preserveAspectRatio="xMidYMid meet">

<g transform="translate(0.000000,168.000000) scale(0.100000,-0.100000)"
fill="#000000" stroke="none">
<path d="M0 840 l0 -840 1500 0 1500 0 0 840 0 840 -1500 0 -1500 0 0 -840z
m570 695 c0 -8 -7 -15 -15 -15 -16 0 -20 12 -8 23 11 12 23 8 23 -8z m1280 -6
c0 -5 -7 -9 -15 -9 -15 0 -20 12 -9 23 8 8 24 -1 24 -14z m-1450 -44 c0 -30
-4 -55 -10 -55 -5 0 -10 25 -10 55 0 30 5 55 10 55 6 0 10 -25 10 -55z m608
40 c-2 -5 11 -12 27 -15 26 -4 30 -10 33 -43 4 -42 -15 -52 -20 -10 -4 39 -28
42 -28 4 0 -21 -5 -31 -15 -31 -12 0 -15 13 -15 56 0 35 4 54 11 52 6 -2 9 -8
7 -13z m-848 -10 c10 -13 10 -19 -3 -33 -11 -12 -13 -22 -6 -35 13 -23 -9 -23
-27 1 -13 16 -13 16 -14 0 0 -10 -7 -18 -15 -18 -11 0 -15 12 -15 50 l0 50 34
0 c18 0 39 -7 46 -15z m370 5 c0 -5 -7 -10 -15 -10 -11 0 -15 -11 -15 -40 0
-22 -4 -40 -10 -40 -5 0 -10 18 -10 40 0 29 -4 40 -15 40 -8 0 -15 5 -15 10 0
6 18 10 40 10 22 0 40 -4 40 -10z m430 -5 c11 -13 8 -15 -21 -13 -30 3 -34 0
-34 -22 0 -22 4 -25 34 -22 29 2 32 0 21 -13 -15 -18 -61 -20 -78 -3 -15 15
-15 61 0 76 17 17 63 15 78 -3z m268 -2 c12 -12 13 -18 4 -21 -14 -4 -16 -42
-2 -42 6 0 10 -4 10 -10 0 -5 -9 -10 -19 -10 -14 0 -20 9 -23 38 -5 36 -1 62
9 62 2 0 12 -8 21 -17z m142 -35 c14 -38 15 -48 5 -48 -8 0 -16 4 -20 10 -4 6
-15 6 -31 0 -39 -15 -44 -12 -34 15 6 14 15 37 20 51 15 38 39 26 60 -28z
m760 32 c0 -13 7 -20 20 -20 13 0 20 7 20 20 0 11 7 20 15 20 11 0 15 -12 15
-50 0 -38 -4 -50 -15 -50 -8 0 -15 9 -15 20 0 13 -7 20 -20 20 -13 0 -20 -7
-20 -20 0 -11 -7 -20 -15 -20 -11 0 -15 12 -15 50 0 38 4 50 15 50 8 0 15 -9
15 -20z m160 10 c0 -5 -7 -10 -15 -10 -11 0 -15 -11 -15 -40 0 -22 -4 -40 -10
-40 -5 0 -10 18 -10 40 0 29 -4 40 -15 40 -8 0 -15 5 -15 10 0 6 18 10 40 10
22 0 40 -4 40 -10z m61 -27 l12 -37 14 37 c10 24 22 37 34 37 16 0 19 -8 19
-50 0 -38 -4 -50 -15 -50 -10 0 -15 10 -16 28 l-1 27 -10 -27 c-5 -16 -16 -28
-23 -28 -7 0 -18 12 -23 28 l-10 27 -1 -27 c-1 -18 -6 -28 -16 -28 -11 0 -15
12 -15 50 0 43 3 50 19 50 14 0 23 -11 32 -37z m119 -3 c0 -29 4 -40 15 -40 8
0 15 -4 15 -10 0 -5 -13 -10 -30 -10 -29 0 -30 1 -30 50 0 38 4 50 15 50 11 0
15 -11 15 -40z m211 23 c13 -15 11 -16 -22 -9 -39 7 -55 -8 -42 -40 4 -12 14
-14 41 -9 32 6 34 5 23 -9 -16 -19 -62 -21 -79 -4 -7 7 -12 24 -12 38 0 14 5
31 12 38 17 17 63 15 79 -5z m97 -2 c4 -11 -2 -12 -24 -7 -27 6 -28 5 -10 -9
11 -8 24 -15 29 -15 4 0 7 -10 5 -22 -4 -29 -62 -39 -72 -13 -5 14 -1 15 25
10 22 -5 29 -4 25 4 -4 6 -13 11 -20 11 -20 0 -37 25 -30 44 8 21 65 18 72 -3z
m90 0 c3 -9 -2 -11 -17 -6 -12 4 -21 2 -21 -4 0 -6 6 -11 14 -11 20 0 37 -25
30 -44 -8 -20 -65 -19 -72 2 -3 9 4 11 25 7 27 -6 27 -6 9 9 -11 9 -23 16 -28
16 -10 0 -11 34 -1 44 12 11 56 2 61 -13z m-2620 -13 c22 -22 13 -38 -20 -39
l-33 -2 35 -7 c27 -5 31 -8 18 -14 -30 -14 -63 -3 -66 22 -2 13 -1 30 2 38 7
17 47 19 64 2z m112 -27 c0 -35 -3 -39 -29 -43 -39 -6 -61 7 -61 35 0 32 18
47 57 47 32 0 33 -2 33 -39z m210 -1 c0 -29 -4 -40 -15 -40 -11 0 -15 11 -15
40 0 29 4 40 15 40 11 0 15 -11 15 -40z m158 -2 c2 -29 0 -38 -12 -38 -11 0
-16 10 -16 31 0 38 -24 35 -28 -4 -4 -35 -20 -35 -24 1 -2 16 -9 27 -18 27 -9
0 -16 -11 -18 -27 -5 -43 -22 -33 -22 12 l0 40 68 -3 67 -2 3 -37z m90 30 c22
-22 13 -38 -20 -39 l-33 -1 30 -7 c29 -7 29 -7 8 -19 -17 -10 -25 -9 -44 7
-21 16 -22 22 -11 45 13 28 49 35 70 14z m362 -29 l0 -40 -42 3 c-36 3 -44 7
-46 26 -6 41 5 52 48 52 l40 0 0 -41z m298 29 c29 -29 0 -81 -39 -71 -19 5
-21 3 -17 -15 4 -15 2 -22 -8 -22 -10 0 -14 15 -14 60 l0 60 33 0 c18 0 38 -5
45 -12z m102 -2 c20 -26 8 -61 -22 -64 -20 -2 -28 -9 -28 -23 0 -10 -7 -19
-15 -19 -12 0 -15 13 -15 60 l0 60 34 0 c18 0 39 -7 46 -14z m80 -16 c0 -20 5
-30 15 -30 10 0 15 10 15 30 0 20 5 30 15 30 11 0 15 -11 15 -41 l0 -40 -37 3
c-36 3 -38 5 -41 41 -2 21 1 37 7 37 6 0 11 -13 11 -30z m135 10 c0 -8 4 -21
8 -27 5 -7 5 -17 2 -23 -8 -14 -65 -13 -65 1 0 6 9 9 20 6 11 -3 20 -1 20 4 0
5 -6 9 -14 9 -19 0 -29 17 -22 36 8 20 51 14 51 -6z m55 -20 c0 -29 -4 -40
-15 -40 -11 0 -15 11 -15 40 0 29 4 40 15 40 11 0 15 -11 15 -40z m98 -2 c2
-27 -1 -38 -10 -38 -8 0 -14 11 -13 28 0 17 -5 27 -15 27 -9 0 -16 -11 -18
-27 -5 -43 -22 -33 -22 13 l0 40 38 -3 c35 -3 37 -5 40 -40z m102 -14 c0 -43
-4 -55 -20 -64 -14 -8 -26 -8 -40 0 -28 15 -25 32 4 24 13 -3 27 -1 30 5 5 7
-3 11 -18 11 -32 0 -51 32 -36 60 7 14 20 19 45 18 l35 -1 0 -53z m490 -11 c0
-14 -19 -38 -25 -32 -8 8 5 39 16 39 5 0 9 -3 9 -7z m373 -13 c-3 -11 -9 -20
-14 -20 -10 0 -12 24 -2 33 13 13 21 7 16 -13z m-1563 -111 c0 -5 -7 -9 -15
-9 -15 0 -20 12 -9 23 8 8 24 -1 24 -14z m-600 -44 c0 -49 -21 -71 -52 -54
-24 13 -23 33 2 26 17 -4 20 0 20 34 0 28 4 39 15 39 11 0 15 -12 15 -45z
m398 26 c3 -10 -2 -12 -22 -7 -32 8 -35 -6 -4 -19 30 -13 34 -41 9 -55 -15 -8
-27 -8 -41 0 -30 16 -25 33 8 26 26 -6 26 -6 8 9 -11 8 -23 15 -28 15 -10 0
-11 34 -1 44 12 12 66 2 71 -13z m360 2 c12 -12 13 -18 4 -21 -16 -5 -16 -34
1 -51 10 -10 7 -12 -13 -9 -19 2 -26 11 -31 37 -12 57 6 77 39 44z m127 7 c3
-5 -3 -10 -14 -10 -12 0 -21 -4 -21 -9 0 -16 27 -31 44 -25 12 5 16 1 14 -17
-5 -45 -98 -44 -98 1 0 10 5 22 10 25 6 4 8 11 5 16 -10 15 5 29 30 29 13 0
27 -4 30 -10z m-775 -50 c0 -34 -3 -38 -29 -42 -41 -6 -61 8 -61 41 0 36 5 40
51 39 38 0 39 -1 39 -38z m45 13 l7 -28 10 28 c5 15 16 27 23 27 12 0 12 -6 1
-37 -17 -51 -47 -56 -64 -10 -15 42 -15 47 2 47 8 0 17 -12 21 -27z m145 -13
c0 -32 -4 -38 -25 -43 -16 -3 -34 2 -48 13 -18 15 -20 21 -9 44 9 21 18 25 47
24 34 -1 35 -3 35 -38z m188 21 c3 -10 -2 -12 -22 -7 -22 5 -26 3 -26 -15 0
-18 4 -20 25 -15 14 4 25 2 25 -3 0 -15 -36 -32 -54 -25 -22 8 -31 51 -15 70
15 18 61 15 67 -5z m72 3 c0 -8 -7 -14 -15 -14 -10 0 -15 -10 -15 -31 0 -17
-4 -28 -10 -24 -5 3 -10 23 -10 44 0 34 3 39 25 39 15 0 25 -6 25 -14z m40
-24 c0 -29 -4 -40 -15 -40 -11 0 -15 11 -15 40 0 29 4 40 15 40 11 0 15 -11
15 -40z m100 20 c18 -34 -7 -66 -47 -61 -8 1 -13 -9 -13 -24 0 -14 -4 -25 -10
-25 -6 0 -10 28 -10 63 l0 64 35 1 c25 1 38 -4 45 -18z m-870 -304 c0 -57 -21
-241 -28 -248 -4 -3 -28 -9 -54 -13 -40 -6 -48 -5 -48 9 0 10 15 19 44 27 40
10 44 14 50 47 3 21 6 49 6 65 0 26 -2 27 -50 27 -37 0 -50 4 -50 14 0 11 15
16 53 18 45 3 52 6 55 26 3 21 0 22 -52 22 -42 0 -56 4 -56 14 0 19 15 24 78
25 l52 1 0 -34z m477 12 c-3 -13 -8 -68 -12 -123 -8 -130 -10 -133 -53 -145
-50 -13 -62 -13 -62 5 0 8 16 19 39 25 45 12 51 23 51 91 l0 49 -37 0 -38 0
43 20 c29 13 42 25 42 40 0 17 -6 20 -50 20 -43 0 -50 3 -50 20 0 18 7 20 66
20 64 0 66 -1 61 -22z m1417 -158 c28 0 57 -5 64 -12 8 -8 12 -56 12 -149 0
-146 -7 -169 -51 -169 -16 0 -19 -7 -19 -41 l0 -42 -45 42 -45 41 -99 0 c-79
0 -103 3 -116 16 -15 15 -18 14 -46 -12 l-29 -28 0 43 c0 41 4 47 70 108 l70
65 -23 18 c-20 17 -21 20 -5 36 17 18 38 12 38 -12 0 -26 17 -15 91 64 64 68
73 74 77 55 3 -20 9 -23 56 -23z m-1504 -4 c0 -20 -16 -36 -36 -36 -2 0 -4 14
-4 30 0 23 4 30 20 30 14 0 20 -7 20 -24z m-480 -5 c0 -10 -7 -22 -16 -25 -23
-9 -24 -8 -24 19 0 18 5 25 20 25 13 0 20 -7 20 -19z m1660 -77 c11 -12 11
-18 -2 -31 -19 -18 -38 -10 -38 16 0 33 20 40 40 15z m-640 -105 c36 -6 67
-13 69 -15 2 -2 -23 -38 -55 -80 -56 -74 -59 -75 -67 -50 -8 24 -12 25 -70 24
-65 -1 -115 15 -168 53 -39 27 -32 33 14 14 47 -19 96 -19 146 1 37 14 39 18
30 41 -13 34 -12 36 14 30 12 -3 51 -11 87 -18z m-900 -66 c0 -24 -30 -326
-32 -328 -2 -2 -33 -11 -69 -21 -63 -16 -68 -16 -132 1 -37 10 -67 21 -67 24
-1 3 -3 22 -5 41 -7 56 -25 252 -25 272 0 17 12 18 165 18 91 0 165 -3 165 -7z
m435 -43 c4 -11 4 -34 0 -50 -5 -23 -3 -30 8 -30 8 0 26 -10 41 -21 36 -29 31
-59 -16 -84 -32 -17 -36 -22 -31 -51 11 -66 -37 -95 -89 -54 l-26 20 -41 -23
c-54 -29 -75 -17 -79 46 -2 34 -8 48 -21 52 -10 3 -28 16 -40 29 -28 29 -17
57 29 78 25 11 30 18 30 50 0 20 3 43 6 52 9 22 56 20 86 -4 15 -11 29 -15 34
-10 42 41 96 41 109 0z"/>
<path d="M112 1499 c2 -6 8 -10 13 -10 5 0 11 4 13 10 2 6 -4 11 -13 11 -9 0
-15 -5 -13 -11z"/>
<path d="M1326 1485 c-3 -8 -1 -15 4 -15 6 0 10 7 10 15 0 8 -2 15 -4 15 -2 0
-6 -7 -10 -15z"/>
<path d="M300 1471 c0 -12 6 -21 16 -21 9 0 14 7 12 17 -5 25 -28 28 -28 4z"/>
<path d="M778 1483 c7 -3 16 -2 19 1 4 3 -2 6 -13 5 -11 0 -14 -3 -6 -6z"/>
<path d="M1114 1479 c-10 -17 13 -36 27 -22 12 12 4 33 -11 33 -5 0 -12 -5
-16 -11z"/>
<path d="M1430 1471 c0 -12 6 -21 16 -21 9 0 14 7 12 17 -5 25 -28 28 -28 4z"/>
<path d="M1537 1483 c-13 -12 -7 -33 8 -33 8 0 15 9 15 20 0 20 -11 26 -23 13z"/>
<path d="M1994 1479 c-10 -17 13 -36 27 -22 12 12 4 33 -11 33 -5 0 -12 -5
-16 -11z"/>
<path d="M1585 1250 c-3 -5 1 -10 10 -10 9 0 13 5 10 10 -3 6 -8 10 -10 10 -2
0 -7 -4 -10 -10z"/>
<path d="M795 1271 c-8 -15 3 -31 21 -31 9 0 14 7 12 17 -4 20 -24 28 -33 14z"/>
<path d="M997 1274 c-14 -14 -7 -35 11 -32 9 2 17 10 17 17 0 16 -18 25 -28
15z"/>
<path d="M1394 1269 c-10 -17 13 -36 27 -22 12 12 4 33 -11 33 -5 0 -12 -5
-16 -11z"/>
<path d="M826 534 c-8 -22 -7 -46 3 -62 11 -19 59 -5 73 21 9 17 7 24 -12 39
-27 22 -56 23 -64 2z"/>
<path d="M960 530 c-25 -19 -25 -19 -5 -39 11 -11 33 -23 48 -27 28 -6 28 -6
25 37 -4 52 -27 62 -68 29z"/>
<path d="M915 490 c-9 -15 -1 -23 21 -18 15 3 16 4 1 16 -11 9 -17 10 -22 2z"/>
<path d="M873 424 c-16 -32 -16 -38 -2 -62 12 -22 23 -28 57 -30 39 -3 43 -1
58 31 16 34 16 36 -5 66 -18 24 -30 31 -57 31 -30 0 -37 -5 -51 -36z m85 -37
c-4 -33 -52 -31 -56 2 -2 13 2 27 9 32 20 12 51 -9 47 -34z"/>
<path d="M840 430 c0 -11 2 -20 5 -20 2 0 9 9 15 20 9 16 8 20 -5 20 -8 0 -15
-9 -15 -20z"/>
<path d="M992 438 c6 -18 28 -21 28 -4 0 9 -7 16 -16 16 -9 0 -14 -5 -12 -12z"/>
<path d="M778 424 c-36 -19 -35 -45 1 -67 16 -9 32 -17 35 -17 15 0 25 51 16
75 -11 29 -15 30 -52 9z"/>
<path d="M1025 411 c-3 -17 -1 -39 5 -50 10 -20 13 -20 40 -6 34 18 42 28 34
48 -5 14 -45 37 -64 37 -4 0 -11 -13 -15 -29z"/>
<path d="M840 351 c0 -12 6 -21 15 -21 8 0 15 4 15 9 0 5 -7 14 -15 21 -13 10
-15 9 -15 -9z"/>
<path d="M996 354 c-9 -22 -8 -24 9 -24 8 0 15 6 15 14 0 22 -17 28 -24 10z"/>
<path d="M824 296 c-9 -36 12 -69 39 -60 12 3 30 13 40 22 16 15 16 17 -5 39
-29 31 -66 31 -74 -1z"/>
<path d="M958 295 c-17 -23 -17 -24 9 -45 39 -31 57 -23 61 28 3 40 2 42 -25
42 -18 -1 -34 -9 -45 -25z"/>
<path d="M918 298 c9 -9 15 -9 24 0 9 9 7 12 -12 12 -19 0 -21 -3 -12 -12z"/>
</g>
</svg>
